<svg xmlns="http://www.w3.org/2000/svg" version="1.1" xmlns:xlink="http://www.w3.org/1999/xlink" xmlns:svgjs="http://svgjs.dev/svgjs" width="1500" height="1500" viewBox="0 0 1500 1500"><g transform="matrix(1,0,0,1,-0.3236151603499593,-0.3236151603499593)"><svg viewBox="0 0 343 343" data-background-color="#444444" preserveAspectRatio="xMidYMid meet" height="1500" width="1500" xmlns="http://www.w3.org/2000/svg" xmlns:xlink="http://www.w3.org/1999/xlink"><g id="tight-bounds" transform="matrix(1,0,0,1,0.07400000000001228,0.07400000000001228)"><svg viewBox="0 0 342.8515585177538 342.8515585177538" height="342.8515585177538" width="342.8515585177538"><g><svg></svg></g><g><svg viewBox="0 0 342.8515585177538 342.8515585177538" height="342.8515585177538" width="342.8515585177538"><g><path d="M0 171.426c0-94.676 76.75-171.426 171.426-171.426 94.676 0 171.426 76.75 171.426 171.426 0 94.676-76.75 171.426-171.426 171.426-94.676 0-171.426-76.75-171.426-171.426zM171.426 340.688c93.481 0 169.262-75.781 169.262-169.262 0-93.481-75.781-169.262-169.262-169.263-93.481 0-169.262 75.781-169.263 169.263 0 93.481 75.781 169.262 169.263 169.262z" data-fill-palette-color="tertiary" fill="#ffffff" stroke="transparent"></path><ellipse rx="164.56874808852183" ry="164.56874808852183" cx="171.4257792588769" cy="171.4257792588769" fill="#ffffff" stroke="transparent" stroke-width="0" fill-opacity="1" data-fill-palette-color="tertiary"></ellipse></g><g transform="matrix(1,0,0,1,64.84655864529836,118.81413363945556)"><svg viewBox="0 0 213.15844122715708 105.22329123884268" height="105.22329123884268" width="213.15844122715708"><g><svg viewBox="0 0 213.15844122715708 105.22329123884268" height="105.22329123884268" width="213.15844122715708"><g><svg viewBox="0 0 213.15844122715708 105.22329123884268" height="105.22329123884268" width="213.15844122715708"><g transform="matrix(1,0,0,1,0,63.42641929991684)"><svg viewBox="0 0 213.15844122715708 41.79687193892584" height="41.79687193892584" width="213.15844122715708"><g id="textblocktransform"><svg viewBox="0 0 213.15844122715708 41.79687193892584" height="41.79687193892584" width="213.15844122715708" id="textblock"><g><svg viewBox="0 0 213.15844122715708 23.988640439186213" height="23.988640439186213" width="213.15844122715708"><g transform="matrix(1,0,0,1,0,0)"><svg width="213.15844122715708" viewBox="0.34 -38.99 398.91 44.900000000000006" height="23.988640439186213" data-palette-color="#444444"><path d="M0.34-35.6L0.34-37.99 8.01-37.99 12.6-16.09 17.14-37.99 24.39-37.99 24.39-35.55Q24.07-35.52 23.71-35.28 23.34-35.03 23.19-34.69L23.19-34.69Q22.97-34.23 22.84-33.41 22.71-32.59 22.71-31.81L22.71-31.81 22.71-5.81Q22.71-5.03 22.78-4.49 22.85-3.96 23.1-3.49L23.1-3.49Q23.41-2.98 23.74-2.73 24.07-2.49 24.39-2.44L24.39-2.44 24.39 0 15.84 0 15.84-2.44Q16.24-2.49 16.55-2.72 16.87-2.95 17.26-3.49L17.26-3.49Q17.48-3.83 17.59-4.47 17.7-5.1 17.7-5.81L17.7-5.81 17.7-27.81 17.5-27.81 12.5-3.71 10.35-3.71 5.15-27.81 4.96-27.81 4.96-6.05Q4.96-5 5.11-4.54 5.27-4.08 5.59-3.66L5.59-3.66Q5.86-3.34 6.26-3.03 6.67-2.71 7.06-2.44L7.06-2.44 7.06 0 0.34 0 0.34-2.44Q0.81-2.69 1.11-2.95 1.42-3.22 1.66-3.54L1.66-3.54Q1.93-3.96 2.09-4.55 2.25-5.15 2.25-6.05L2.25-6.05 2.25-32.69Q2.25-33.37 2.11-33.83 1.98-34.28 1.71-34.64L1.71-34.64Q1.51-34.91 1.14-35.18 0.76-35.45 0.34-35.6L0.34-35.6ZM37.5-28L37.5-28Q39.62-28 41.48-27.03 43.33-26.05 44.74-24.19 46.14-22.34 46.92-19.67 47.7-16.99 47.7-13.6L47.7-13.6Q47.7-10.08 46.92-7.37 46.14-4.66 44.74-2.8 43.33-0.93 41.48 0.04 39.62 1 37.5 1L37.5 1Q35.37 1 33.52 0.04 31.66-0.93 30.26-2.8 28.85-4.66 28.07-7.37 27.29-10.08 27.29-13.6L27.29-13.6Q27.29-16.99 28.07-19.67 28.85-22.34 30.26-24.19 31.66-26.05 33.52-27.03 35.37-28 37.5-28ZM37.5-25.34L37.5-25.34Q36.5-25.34 35.56-24.11 34.62-22.88 34.01-20.29 33.4-17.7 33.4-13.65L33.4-13.65Q33.4-9.52 34.01-6.9 34.62-4.27 35.56-3.02 36.5-1.76 37.5-1.76L37.5-1.76Q38.5-1.76 39.44-3.02 40.38-4.27 40.99-6.9 41.6-9.52 41.6-13.65L41.6-13.65Q41.6-17.7 40.99-20.29 40.38-22.88 39.44-24.11 38.5-25.34 37.5-25.34ZM59.3-38.99L59.3-23.75Q60.05-25.73 61.57-26.87 63.08-28 65.08-28L65.08-28Q66.25-28 67.51-27.45 68.77-26.9 69.7-25.44L69.7-25.44Q70.45-24.29 70.82-22.5 71.19-20.7 71.19-17.94L71.19-17.94 71.19-5.25Q71.19-4.2 71.32-3.77 71.45-3.34 71.8-3L71.8-3Q72.09-2.69 72.55-2.54 73.02-2.39 73.55-2.34L73.55-2.34 73.55 0 64.2 0 64.2-2.34Q64.5-2.42 64.73-2.54 64.96-2.66 65.3-3L65.3-3Q65.6-3.3 65.69-3.77 65.79-4.25 65.79-5.3L65.79-5.3 65.79-16.6Q65.79-18.92 65.61-20.34 65.42-21.75 64.94-22.51L64.94-22.51Q64.2-23.61 63.15-23.61L63.15-23.61Q62.45-23.61 61.68-23 60.91-22.39 60.27-21.3 59.64-20.21 59.3-18.75L59.3-18.75 59.3-5.3Q59.3-4.22 59.44-3.76 59.59-3.3 59.83-3L59.83-3Q60.03-2.78 60.35-2.6 60.66-2.42 61.05-2.34L61.05-2.34 61.05 0 51.61 0 51.61-2.34Q52.17-2.39 52.62-2.53 53.07-2.66 53.39-3L53.39-3Q53.66-3.27 53.78-3.74 53.9-4.2 53.9-5.35L53.9-5.35 53.9-32.91Q53.9-33.89 53.74-34.35 53.58-34.81 53.39-35.01L53.39-35.01Q53.07-35.35 52.66-35.5 52.24-35.64 51.61-35.64L51.61-35.64 51.61-37.99Q53.19-37.99 55.21-38.26 57.22-38.53 59.3-38.99L59.3-38.99ZM86.2-28L86.2-28Q88.44-28 90.13-27.42 91.81-26.83 92.94-25.56L92.94-25.56Q94.08-24.29 94.74-22.35 95.4-20.41 95.4-17.8L95.4-17.8 95.4-7.35Q95.4-5.96 95.49-5.22 95.57-4.49 95.74-4.22 95.92-3.96 96.18-3.96L96.18-3.96Q96.65-3.96 97-4.32 97.36-4.69 97.84-5.4L97.84-5.4 98.6-2.86Q97.84-1.22 96.5-0.23 95.16 0.76 93.69 0.76L93.69 0.76Q92.62 0.76 91.79 0.28 90.96-0.2 90.45-0.99 89.93-1.78 89.84-2.71L89.84-2.71Q89.23-1.46 88.22-0.66 87.22 0.15 86.06 0.52 84.9 0.9 83.73 0.9L83.73 0.9Q82.41 0.9 81.29 0.31 80.17-0.29 79.33-1.35 78.48-2.42 78.01-3.81 77.53-5.2 77.53-6.81L77.53-6.81Q77.53-9.42 78.28-11.15 79.02-12.87 80.34-13.99L80.34-13.99Q81.07-14.62 82.12-15.1 83.17-15.58 84.36-15.92 85.54-16.26 86.66-16.48 87.79-16.7 88.64-16.8L88.64-16.8 89.98-16.94 89.98-17.94Q89.98-19.04 89.85-20.17 89.71-21.29 89.52-22.2 89.32-23.12 89.1-23.56L89.1-23.56Q88.57-24.61 87.65-25.02 86.74-25.44 85.78-25.44L85.78-25.44Q84.95-25.44 84.17-25.13 83.39-24.83 83.1-24.34L83.1-24.34Q83.71-24.02 84-23.33 84.29-22.63 84.29-21.85L84.29-21.85Q84.29-21.14 83.88-20.53 83.46-19.92 82.81-19.56 82.15-19.19 81.44-19.19L81.44-19.19Q80.58-19.19 79.92-19.62 79.26-20.04 78.9-20.75 78.53-21.46 78.53-22.24L78.53-22.24Q78.53-23.27 78.91-24.07 79.29-24.88 80.05-25.66L80.05-25.66Q80.97-26.64 82.59-27.32 84.2-28 86.2-28ZM89.98-14.36L89.2-14.26Q88.1-14.09 86.86-13.75 85.61-13.4 84.83-12.7L84.83-12.7Q83.9-11.87 83.43-10.55 82.95-9.23 82.95-7.2L82.95-7.2Q82.95-6.15 83.29-5.25 83.64-4.35 84.32-3.8 85-3.25 86.05-3.25L86.05-3.25Q86.71-3.25 87.39-3.67 88.08-4.1 88.66-4.81 89.25-5.52 89.62-6.35 89.98-7.18 89.98-7.96L89.98-7.96 89.98-14.36ZM101.38-24.66L101.38-27 112.05-27 112.05-24.66Q111.71-24.63 111.38-24.51 111.05-24.39 110.78-24.24L110.78-24.24Q110.49-24.07 110.34-23.86 110.2-23.66 110.2-23.34L110.2-23.34Q110.2-22.95 110.34-22.34 110.49-21.73 110.73-20.95L110.73-20.95 114.1-10.45 117.79-20.95Q118.06-21.73 118.23-22.38 118.4-23.02 118.4-23.34L118.4-23.34Q118.4-23.61 118.23-23.83 118.06-24.05 117.79-24.19L117.79-24.19Q117.57-24.34 117.19-24.46 116.81-24.58 116.45-24.66L116.45-24.66 116.45-27 123.74-27 123.74-24.66Q122.72-24.34 122.18-23.56L122.18-23.56Q121.89-23.07 121.54-22.28 121.18-21.48 120.74-20.24L120.74-20.24 113.54-1.2Q113.03 0.2 112.37 1.48 111.71 2.76 110.88 3.76 110.05 4.76 108.99 5.33 107.92 5.91 106.58 5.91L106.58 5.91Q105.51 5.91 104.64 5.41 103.77 4.91 103.25 4.08 102.72 3.25 102.65 2.25L102.65 2.25Q102.6 1.76 102.75 1.17 102.9 0.59 103.19 0.24L103.19 0.24Q103.53-0.17 104.08-0.42 104.63-0.66 105.19-0.66L105.19-0.66Q105.97-0.66 106.53-0.28 107.09 0.1 107.41 0.65 107.73 1.2 107.73 1.71L107.73 1.71Q107.73 2.22 107.63 2.61 107.53 3 107.24 3.3L107.24 3.3Q107.92 3.1 108.77 1.92 109.61 0.73 110.59-1.86L110.59-1.86 111.05-3.05 104.38-21.9Q104.14-22.68 103.92-23.13 103.7-23.58 103.29-23.95L103.29-23.95Q102.9-24.32 102.49-24.48 102.09-24.63 101.38-24.66L101.38-24.66ZM131.43-28L131.43-23.9Q131.73-25.02 132.35-25.95 132.97-26.88 133.74-27.44 134.51-28 135.24-28L135.24-28Q136-28 136.62-27.67 137.24-27.34 137.63-26.9L137.63-26.9Q138.27-26.22 138.61-25.28 138.95-24.34 138.98-22.8L138.98-22.8Q139.27-24.44 139.98-25.6 140.69-26.76 141.6-27.38 142.52-28 143.4-28L143.4-28Q144.3-28 145.13-27.54 145.96-27.08 146.79-25.85L146.79-25.85Q147.25-25.2 147.53-24.23 147.81-23.27 147.95-22.19 148.08-21.12 148.08-20.09L148.08-20.09 148.08-3.59Q148.08-3.05 148.38-2.76L148.38-2.76Q148.55-2.59 148.77-2.5 148.99-2.42 149.28-2.34L149.28-2.34 149.28 0 142.44 0 142.44-2.34Q142.98-2.59 143.13-2.86L143.13-2.86Q143.22-3 143.29-3.19 143.35-3.37 143.35-3.59L143.35-3.59 143.35-19.56Q143.35-20.34 143.29-21.15 143.22-21.97 143.03-22.34L143.03-22.34Q142.86-22.75 142.54-23.02 142.22-23.29 141.83-23.29L141.83-23.29Q141.44-23.29 141.09-22.94 140.73-22.58 140.47-22.02 140.2-21.46 140.04-20.86 139.88-20.26 139.88-19.75L139.88-19.75 139.88-3.59Q139.88-3.2 140.03-2.91L140.03-2.91Q140.2-2.56 140.49-2.34L140.49-2.34 140.49 0 134.53 0 134.53-2.34Q134.9-2.49 135.05-2.81L135.05-2.81Q135.19-3.1 135.19-3.59L135.19-3.59 135.19-19.7Q135.19-20.19 135.11-20.96 135.02-21.73 134.83-22.19L134.83-22.19Q134.41-23.29 133.63-23.29L133.63-23.29Q133.26-23.29 132.92-22.94 132.58-22.58 132.34-22.06 132.09-21.53 131.95-20.97 131.8-20.41 131.8-20L131.8-20 131.8-3.59Q131.8-3.08 131.99-2.81L131.99-2.81Q132.21-2.49 132.63-2.34L132.63-2.34 132.63 0 125.74 0 125.74-2.34Q126.11-2.42 126.34-2.5 126.57-2.59 126.75-2.76L126.75-2.76Q127.04-3.05 127.04-3.59L127.04-3.59 127.04-22.09Q127.04-22.78 126.94-23.27 126.84-23.75 126.7-24L126.7-24Q126.53-24.27 126.28-24.41 126.04-24.56 125.74-24.66L125.74-24.66 125.74-27Q127.94-27 131.43-28L131.43-28ZM162.63-28L162.63-28Q163.58-28 164.77-27.67 165.95-27.34 167.15-26.49 168.34-25.63 169.35-24.11 170.35-22.58 170.97-20.21 171.59-17.85 171.59-14.45L171.59-14.45 171.59-13.11 159.43-13.11 159.43-12.3Q159.43-9.03 160.07-6.91 160.7-4.79 161.81-3.75 162.92-2.71 164.29-2.71L164.29-2.71Q165.37-2.71 166.38-3.38 167.39-4.05 168.25-5.19 169.1-6.32 169.64-7.74L169.64-7.74 171.54-5.81Q171.1-4.66 170.42-3.47 169.74-2.27 168.74-1.26 167.73-0.24 166.37 0.38 165 1 163.19 1L163.19 1Q161.09 1 159.3 0.02 157.5-0.95 156.17-2.83 154.84-4.71 154.11-7.4 153.38-10.08 153.38-13.5L153.38-13.5Q153.38-18.04 154.56-21.29 155.75-24.54 157.85-26.27 159.95-28 162.63-28ZM162.58-25.34L162.58-25.34Q161.92-25.34 161.28-24.44 160.63-23.54 160.18-21.47 159.73-19.41 159.63-15.89L159.63-15.89 165.39-15.89Q165.39-16.89 165.32-18.09 165.24-19.29 165.09-20.47 164.93-21.66 164.63-22.61L164.63-22.61Q164.34-23.68 163.8-24.51 163.27-25.34 162.58-25.34ZM184.28-28L184.28-23.75Q185.04-25.73 186.55-26.87 188.07-28 190.07-28L190.07-28Q191.24-28 192.5-27.45 193.76-26.9 194.68-25.44L194.68-25.44Q195.44-24.29 195.81-22.5 196.17-20.7 196.17-17.94L196.17-17.94 196.17-5.25Q196.17-4.2 196.31-3.77 196.44-3.34 196.78-3L196.78-3Q197.08-2.69 197.54-2.54 198-2.39 198.54-2.34L198.54-2.34 198.54 0 189.19 0 189.19-2.34Q189.48-2.42 189.72-2.54 189.95-2.66 190.29-3L190.29-3Q190.58-3.3 190.68-3.77 190.78-4.25 190.78-5.3L190.78-5.3 190.78-16.6Q190.78-18.92 190.6-20.34 190.41-21.75 189.92-22.51L189.92-22.51Q189.19-23.61 188.14-23.61L188.14-23.61Q187.43-23.61 186.66-23 185.9-22.39 185.26-21.3 184.63-20.21 184.28-18.75L184.28-18.75 184.28-5.3Q184.28-4.22 184.43-3.76 184.58-3.3 184.82-3L184.82-3Q185.02-2.78 185.33-2.6 185.65-2.42 186.04-2.34L186.04-2.34 186.04 0 176.59 0 176.59-2.34Q177.16-2.39 177.61-2.53 178.06-2.66 178.38-3L178.38-3Q178.64-3.27 178.77-3.74 178.89-4.2 178.89-5.35L178.89-5.35 178.89-21.9Q178.89-22.88 178.73-23.35 178.57-23.83 178.38-24L178.38-24Q178.06-24.34 177.64-24.5 177.23-24.66 176.59-24.66L176.59-24.66 176.59-27Q178.18-27 180.19-27.26 182.21-27.51 184.28-28L184.28-28ZM209.28-28L209.28-10.6Q209.28-7.91 209.43-6.53 209.57-5.15 209.99-4.54L209.99-4.54Q210.28-4.1 210.77-3.85 211.26-3.59 211.77-3.59L211.77-3.59Q212.21-3.59 212.81-3.98 213.41-4.37 214.01-5.05 214.6-5.74 215.08-6.59 215.56-7.45 215.78-8.35L215.78-8.35 215.78-21.34Q215.78-22.29 215.71-22.95 215.65-23.61 215.24-24L215.24-24Q214.9-24.34 214.52-24.5 214.14-24.66 213.58-24.66L213.58-24.66 213.58-27Q215.12-27 217.08-27.26 219.05-27.51 221.17-28L221.17-28 221.17-6.59Q221.17-4.88 221.23-4.13 221.29-3.37 221.68-3L221.68-3Q222.03-2.66 222.45-2.5 222.88-2.34 223.73-2.34L223.73-2.34 223.73 0 216.34 0 216.07-3.76Q215.7-2.64 214.91-1.55 214.12-0.46 212.86 0.24 211.6 0.95 209.82 0.95L209.82 0.95Q208.84 0.95 207.66 0.42 206.47-0.12 205.52-1.49L205.52-1.49Q204.74-2.66 204.31-4.52 203.89-6.37 203.89-9.11L203.89-9.11 203.89-21.46Q203.89-22.31 203.83-22.97 203.76-23.63 203.37-24L203.37-24Q203.06-24.34 202.56-24.5 202.06-24.66 201.13-24.66L201.13-24.66 201.13-27Q203.06-27 205.13-27.26 207.21-27.51 209.28-28L209.28-28ZM240.48-38.99L240.48-6.1Q240.48-4.86 240.7-4.15 240.92-3.44 241.33-3.1L241.33-3.1Q241.68-2.81 242.41-2.6 243.14-2.39 244.22-2.34L244.22-2.34 244.22 0 230.98 0 230.98-2.34Q232.33-2.39 233.14-2.64 233.96-2.88 234.18-3.1L234.18-3.1Q234.6-3.52 234.79-4.17 234.99-4.83 234.99-6.01L234.99-6.01 234.99-32.5Q234.99-34.25 234.38-34.96L234.38-34.96Q234.08-35.3 233.45-35.46 232.81-35.62 231.37-35.64L231.37-35.64 231.37-37.99Q233.91-37.99 236.16-38.26 238.41-38.53 240.48-38.99L240.48-38.99ZM280.88-35.55L280.88-37.99 294.06-37.99 294.06-35.55Q292.77-35.52 291.96-35.28 291.16-35.03 290.82-34.5L290.82-34.5Q290.52-34.01 290.43-33.41 290.33-32.81 290.33-31.81L290.33-31.81 290.33-6.3Q290.33-5.3 290.43-4.69 290.52-4.08 290.82-3.59L290.82-3.59Q291.5-2.51 294.06-2.44L294.06-2.44 294.06 0 280.88 0 280.88-2.44Q283.44-2.51 284.13-3.59L284.13-3.59Q284.42-4.08 284.52-4.69 284.62-5.3 284.62-6.3L284.62-6.3 284.62-31.81Q284.62-32.81 284.52-33.41 284.42-34.01 284.13-34.5L284.13-34.5Q283.79-35.03 282.98-35.28 282.17-35.52 280.88-35.55L280.88-35.55ZM312.32-28L312.32-28Q313.4-28 314.44-27.6 315.47-27.2 316.01-26.86L316.01-26.86Q316.6-26.54 316.86-26.54L316.86-26.54Q317.01-26.54 317.18-26.81 317.35-27.08 317.43-27.76L317.43-27.76 319.21-27.76 319.21-19.24 317.28-19.24Q317.16-20.12 316.85-21.06 316.55-22 316.01-22.9L316.01-22.9Q315.35-24.05 314.44-24.67 313.52-25.29 312.47-25.29L312.47-25.29Q311.93-25.29 311.37-25.07 310.81-24.85 310.47-24.44L310.47-24.44Q310.03-23.93 309.8-23.34 309.56-22.75 309.56-21.9L309.56-21.9Q309.56-20.92 309.88-20.3 310.2-19.68 310.71-19.19L310.71-19.19Q311.18-18.8 311.93-18.24 312.69-17.68 313.32-17.26L313.32-17.26 314.47-16.5Q314.89-16.21 315.49-15.77 316.08-15.33 316.75-14.83 317.43-14.33 318.01-13.83 318.6-13.33 318.96-12.94L318.96-12.94Q319.94-11.89 320.53-10.51 321.11-9.13 321.11-7.1L321.11-7.1Q321.11-5.4 320.51-3.88 319.92-2.37 318.92-1.29L318.92-1.29Q317.87-0.22 316.27 0.37 314.67 0.95 312.71 0.95L312.71 0.95Q311.18 0.95 310.16 0.57 309.15 0.2 308.37-0.34L308.37-0.34Q307.98-0.66 307.73-0.83 307.49-1 307.27-1L307.27-1Q307.05-1 306.87-0.48 306.68 0.05 306.56 0.76L306.56 0.76 304.83 0.76 304.83-9.59 306.83-9.59Q306.88-8.37 307.14-7.14 307.39-5.91 308.08-4.71L308.08-4.71Q308.71-3.59 309.74-2.77 310.76-1.95 312.47-1.95L312.47-1.95Q313.03-1.95 313.67-2.19 314.3-2.42 314.67-2.76L314.67-2.76Q315.16-3.2 315.39-3.85 315.62-4.49 315.62-5.49L315.62-5.49Q315.62-6.52 315.34-7.17 315.06-7.81 314.57-8.3L314.57-8.3Q314.01-8.86 313.19-9.5 312.37-10.13 311.81-10.5L311.81-10.5 310.66-11.3Q309.59-12.06 308.47-12.99 307.34-13.92 306.56-14.75L306.56-14.75Q305.56-15.82 304.96-17.21 304.36-18.6 304.36-20.56L304.36-20.56Q304.36-22.14 304.91-23.43 305.46-24.71 306.46-25.81L306.46-25.81Q307.37-26.73 308.76-27.37 310.15-28 312.32-28ZM340.47-38.99L340.47-6.1Q340.47-4.86 340.69-4.15 340.91-3.44 341.32-3.1L341.32-3.1Q341.67-2.81 342.4-2.6 343.13-2.39 344.21-2.34L344.21-2.34 344.21 0 330.97 0 330.97-2.34Q332.32-2.39 333.13-2.64 333.95-2.88 334.17-3.1L334.17-3.1Q334.59-3.52 334.78-4.17 334.98-4.83 334.98-6.01L334.98-6.01 334.98-32.5Q334.98-34.25 334.37-34.96L334.37-34.96Q334.07-35.3 333.44-35.46 332.8-35.62 331.36-35.64L331.36-35.64 331.36-37.99Q333.9-37.99 336.15-38.26 338.4-38.53 340.47-38.99L340.47-38.99ZM361.17-28L361.17-28Q363.42-28 365.1-27.42 366.79-26.83 367.91-25.56L367.91-25.56Q369.06-24.29 369.72-22.35 370.38-20.41 370.38-17.8L370.38-17.8 370.38-7.35Q370.38-5.96 370.46-5.22 370.55-4.49 370.72-4.22 370.89-3.96 371.16-3.96L371.16-3.96Q371.62-3.96 371.97-4.32 372.33-4.69 372.82-5.4L372.82-5.4 373.57-2.86Q372.82-1.22 371.47-0.23 370.13 0.76 368.67 0.76L368.67 0.76Q367.59 0.76 366.76 0.28 365.93-0.2 365.42-0.99 364.91-1.78 364.81-2.71L364.81-2.71Q364.2-1.46 363.2-0.66 362.2 0.15 361.04 0.52 359.88 0.9 358.71 0.9L358.71 0.9Q357.39 0.9 356.26 0.31 355.14-0.29 354.3-1.35 353.46-2.42 352.98-3.81 352.5-5.2 352.5-6.81L352.5-6.81Q352.5-9.42 353.25-11.15 353.99-12.87 355.31-13.99L355.31-13.99Q356.04-14.62 357.09-15.1 358.14-15.58 359.33-15.92 360.51-16.26 361.63-16.48 362.76-16.7 363.61-16.8L363.61-16.8 364.96-16.94 364.96-17.94Q364.96-19.04 364.82-20.17 364.69-21.29 364.49-22.2 364.3-23.12 364.08-23.56L364.08-23.56Q363.54-24.61 362.62-25.02 361.71-25.44 360.76-25.44L360.76-25.44Q359.93-25.44 359.14-25.13 358.36-24.83 358.07-24.34L358.07-24.34Q358.68-24.02 358.97-23.33 359.27-22.63 359.27-21.85L359.27-21.85Q359.27-21.14 358.85-20.53 358.44-19.92 357.78-19.56 357.12-19.19 356.41-19.19L356.41-19.19Q355.56-19.19 354.9-19.62 354.24-20.04 353.87-20.75 353.51-21.46 353.51-22.24L353.51-22.24Q353.51-23.27 353.88-24.07 354.26-24.88 355.02-25.66L355.02-25.66Q355.95-26.64 357.56-27.32 359.17-28 361.17-28ZM364.96-14.36L364.17-14.26Q363.08-14.09 361.83-13.75 360.59-13.4 359.8-12.7L359.8-12.7Q358.88-11.87 358.4-10.55 357.92-9.23 357.92-7.2L357.92-7.2Q357.92-6.15 358.27-5.25 358.61-4.35 359.29-3.8 359.97-3.25 361.02-3.25L361.02-3.25Q361.68-3.25 362.37-3.67 363.05-4.1 363.64-4.81 364.22-5.52 364.59-6.35 364.96-7.18 364.96-7.96L364.96-7.96 364.96-14.36ZM381.41-28L381.41-23.9Q381.7-25.02 382.32-25.95 382.95-26.88 383.71-27.44 384.48-28 385.22-28L385.22-28Q385.97-28 386.6-27.67 387.22-27.34 387.61-26.9L387.61-26.9Q388.24-26.22 388.59-25.28 388.93-24.34 388.95-22.8L388.95-22.8Q389.24-24.44 389.95-25.6 390.66-26.76 391.58-27.38 392.49-28 393.37-28L393.37-28Q394.27-28 395.1-27.54 395.93-27.08 396.76-25.85L396.76-25.85Q397.23-25.2 397.51-24.23 397.79-23.27 397.92-22.19 398.06-21.12 398.06-20.09L398.06-20.09 398.06-3.59Q398.06-3.05 398.35-2.76L398.35-2.76Q398.52-2.59 398.74-2.5 398.96-2.42 399.25-2.34L399.25-2.34 399.25 0 392.42 0 392.42-2.34Q392.96-2.59 393.1-2.86L393.1-2.86Q393.2-3 393.26-3.19 393.32-3.37 393.32-3.59L393.32-3.59 393.32-19.56Q393.32-20.34 393.26-21.15 393.2-21.97 393-22.34L393-22.34Q392.83-22.75 392.52-23.02 392.2-23.29 391.81-23.29L391.81-23.29Q391.42-23.29 391.06-22.94 390.71-22.58 390.44-22.02 390.17-21.46 390.01-20.86 389.86-20.26 389.86-19.75L389.86-19.75 389.86-3.59Q389.86-3.2 390-2.91L390-2.91Q390.17-2.56 390.47-2.34L390.47-2.34 390.47 0 384.51 0 384.51-2.34Q384.87-2.49 385.02-2.81L385.02-2.81Q385.17-3.1 385.17-3.59L385.17-3.59 385.17-19.7Q385.17-20.19 385.08-20.96 385-21.73 384.8-22.19L384.8-22.19Q384.39-23.29 383.61-23.29L383.61-23.29Q383.24-23.29 382.9-22.94 382.56-22.58 382.31-22.06 382.07-21.53 381.92-20.97 381.77-20.41 381.77-20L381.77-20 381.77-3.59Q381.77-3.08 381.97-2.81L381.97-2.81Q382.19-2.49 382.6-2.34L382.6-2.34 382.6 0 375.72 0 375.72-2.34Q376.09-2.42 376.32-2.5 376.55-2.59 376.72-2.76L376.72-2.76Q377.01-3.05 377.01-3.59L377.01-3.59 377.01-22.09Q377.01-22.78 376.92-23.27 376.82-23.75 376.67-24L376.67-24Q376.5-24.27 376.26-24.41 376.01-24.56 375.72-24.66L375.72-24.66 375.72-27Q377.92-27 381.41-28L381.41-28Z" opacity="1" transform="matrix(1,0,0,1,0,0)" fill="#444444" class="wordmark-text-0" data-fill-palette-color="quaternary" id="text-0"></path></svg></g></svg></g><g transform="matrix(1,0,0,1,0,29.651782719507537)"><svg viewBox="0 0 213.15844122715708 12.145089219418303" height="12.145089219418303" width="213.15844122715708"><g transform="matrix(1,0,0,1,0,0)"><svg width="213.15844122715708" viewBox="0.24 -39.28 794 45.24" height="12.145089219418303" data-palette-color="#444444"><path d="M0.24-36.18L0.24-37.99 6.05-37.99 6.05-36.18Q4.83-35.55 4.83-34.52L4.83-34.52Q4.83-33.74 5-32.45L5-32.45 8.11-7.1 8.3-7.1 11.25-35.08 14.65-35.08 17.9-7.1 18.04-7.1 20.75-32.08Q20.85-33.08 20.85-34.2L20.85-34.2Q20.85-35.94 18.99-36.18L18.99-36.18 18.99-37.99 24.68-37.99 24.68-36.23Q23.32-35.5 22.95-32.3L22.95-32.3 19.14 0.61 16.19 0.61 12.74-27.59 12.6-27.59 9.45 0.61 6.54 0.61 1.95-32.89Q1.56-35.62 0.24-36.18L0.24-36.18ZM45.75-13.77L32.25-13.77 32.25-12.82Q32.25-7.86 33.98-4.83L33.98-4.83Q35.69-1.81 38.31-1.81L38.31-1.81Q41.89-1.81 44.12-7.67L44.12-7.67 45.61-6.15Q42.9 1 37.72 1L37.72 1Q34.45 1 32.08-1.88L32.08-1.88Q28.86-5.83 28.86-13.16L28.86-13.16Q28.86-19.65 31.37-23.9L31.37-23.9Q33.84-28 37.48-28L37.48-28Q41.11-28 43.55-23.83L43.55-23.83Q45.75-20.02 45.75-14.77L45.75-14.77 45.75-13.77ZM32.4-16.16L42.16-16.16Q42.04-20.48 40.8-23.02L40.8-23.02Q39.53-25.66 37.5-25.66L37.5-25.66Q35.72-25.66 34.23-23.1L34.23-23.1Q32.57-20.31 32.4-16.16L32.4-16.16ZM57.03 0.61L55.25 0.61 55.25-32.64Q55.25-34.57 54.69-35.35L54.69-35.35Q54.2-36.04 52.39-36.21L52.39-36.21 52.39-38.01Q56.05-38.11 58.4-39.01L58.4-39.01 58.4-23.34Q59.03-25.59 60.64-26.88L60.64-26.88Q62.04-28 63.62-28L63.62-28Q66.43-28 68.6-24.83L68.6-24.83Q71.51-20.61 71.51-13.82L71.51-13.82Q71.51-7.06 69.48-3.15L69.48-3.15Q67.33 1 63.35 1L63.35 1Q59.5 1 57.98-2.71L57.98-2.71 57.03 0.61ZM63.16-25.2L63.16-25.2Q61.04-25.2 59.5-22.02L59.5-22.02Q58.3-19.53 58.3-13.65L58.3-13.65Q58.3-7.42 59.06-5.2L59.06-5.2Q60.25-1.66 62.99-1.66L62.99-1.66Q64.89-1.66 66.26-4.32L66.26-4.32Q68.07-7.81 68.07-13.89L68.07-13.89Q68.07-19.8 65.84-23.24L65.84-23.24Q64.6-25.2 63.16-25.2ZM101.76-36.18L101.76-37.99 110.74-37.99Q116.36-37.99 119.58-32.52L119.58-32.52Q122.44-27.66 122.44-19.07L122.44-19.07Q122.44-9.4 118.77-4.17L118.77-4.17Q115.84 0 110.74 0L110.74 0 101.76 0 101.76-1.81Q103.05-2 103.61-2.54L103.61-2.54Q104.1-3.05 104.1-4.3L104.1-4.3 104.1-33.79Q104.1-35.08 103.54-35.6L103.54-35.6Q103.08-36.04 101.76-36.18L101.76-36.18ZM107.35-33.54L107.35-33.54 107.35-4.76Q107.35-3.44 107.79-2.95L107.79-2.95Q108.2-2.49 109.55-2.49L109.55-2.49 110.89-2.49Q114.67-2.49 116.75-6.79L116.75-6.79Q118.85-11.13 118.85-19.46L118.85-19.46Q118.85-26.46 117.72-29.76L117.72-29.76Q115.77-35.5 110.74-35.5L110.74-35.5 109.25-35.5Q108.15-35.5 107.74-35.08L107.74-35.08Q107.35-34.69 107.35-33.54ZM145.75-13.77L132.25-13.77 132.25-12.82Q132.25-7.86 133.98-4.83L133.98-4.83Q135.69-1.81 138.31-1.81L138.31-1.81Q141.89-1.81 144.12-7.67L144.12-7.67 145.61-6.15Q142.9 1 137.72 1L137.72 1Q134.45 1 132.08-1.88L132.08-1.88Q128.86-5.83 128.86-13.16L128.86-13.16Q128.86-19.65 131.37-23.9L131.37-23.9Q133.84-28 137.48-28L137.48-28Q141.11-28 143.55-23.83L143.55-23.83Q145.75-20.02 145.75-14.77L145.75-14.77 145.75-13.77ZM132.4-16.16L142.16-16.16Q142.04-20.48 140.8-23.02L140.8-23.02Q139.53-25.66 137.5-25.66L137.5-25.66Q135.72-25.66 134.23-23.1L134.23-23.1Q132.57-20.31 132.4-16.16L132.4-16.16ZM152.1-25.2L152.1-27 160.3-27 160.3-25.2Q158.4-24.98 158.4-23.83L158.4-23.83Q158.4-23.36 158.74-22.05L158.74-22.05 163.31-4.96 167.46-21.24Q167.8-22.61 167.8-23.56L167.8-23.56Q167.8-24.83 165.65-25.2L165.65-25.2 165.65-27 172.8-27 172.8-25.2Q171.56-24.95 171.09-24.29L171.09-24.29Q170.53-23.51 169.9-21.14L169.9-21.14 164.16 0.61 161.74 0.61 155.1-21.95Q154.64-23.56 154.05-24.29L154.05-24.29Q153.44-25.1 152.1-25.2L152.1-25.2ZM195.75-13.77L182.25-13.77 182.25-12.82Q182.25-7.86 183.98-4.83L183.98-4.83Q185.69-1.81 188.31-1.81L188.31-1.81Q191.89-1.81 194.12-7.67L194.12-7.67 195.61-6.15Q192.9 1 187.72 1L187.72 1Q184.45 1 182.08-1.88L182.08-1.88Q178.86-5.83 178.86-13.16L178.86-13.16Q178.86-19.65 181.37-23.9L181.37-23.9Q183.84-28 187.48-28L187.48-28Q191.11-28 193.55-23.83L193.55-23.83Q195.75-20.02 195.75-14.77L195.75-14.77 195.75-13.77ZM182.4-16.16L192.16-16.16Q192.04-20.48 190.8-23.02L190.8-23.02Q189.53-25.66 187.5-25.66L187.5-25.66Q185.72-25.66 184.23-23.1L184.23-23.1Q182.57-20.31 182.4-16.16L182.4-16.16ZM217.53 0L207.59 0 207.59-1.81Q209.67-2.1 210.28-2.59L210.28-2.59Q211.04-3.22 211.04-4.81L211.04-4.81 211.04-33.67Q211.04-35.03 210.42-35.5L210.42-35.5Q209.77-36.04 207.93-36.21L207.93-36.21 207.93-38.01Q210.91-38.01 214.18-39.01L214.18-39.01 214.18-4.81Q214.18-3.2 214.89-2.59L214.89-2.59Q215.58-2.03 217.53-1.81L217.53-1.81 217.53 0ZM237.52-28L237.52-28Q241.16-28 243.68-24.29L243.68-24.29Q246.48-20.14 246.48-13.4L246.48-13.4Q246.48-7.93 244.63-4.15L244.63-4.15Q242.11 1 237.45 1L237.45 1Q233.42 1 230.91-3.13L230.91-3.13Q228.49-7.08 228.49-13.4L228.49-13.4Q228.49-20.95 231.91-25.12L231.91-25.12Q234.28-28 237.52-28ZM237.48-25.61L237.48-25.61Q235.4-25.61 233.94-22.97L233.94-22.97Q232.08-19.65 232.08-13.55L232.08-13.55Q232.08-8.08 233.89-4.49L233.89-4.49Q235.45-1.39 237.5-1.39L237.5-1.39Q239.28-1.39 240.77-3.91L240.77-3.91Q242.9-7.54 242.9-13.5L242.9-13.5Q242.9-19.87 240.92-23.19L240.92-23.19Q239.48-25.61 237.48-25.61ZM261.65 5.96L252.29 5.96 252.29 4.15Q254.08 4.03 254.71 3.34L254.71 3.34Q255.25 2.76 255.25 1.2L255.25 1.2 255.25-22.66Q255.25-24.07 254.64-24.61L254.64-24.61Q254.15-25.02 252.39-25.2L252.39-25.2 252.39-27Q256.08-27.1 258.4-28L258.4-28 258.4-24.1Q259.06-25.83 260.67-26.98L260.67-26.98Q262.11-28 263.65-28L263.65-28Q266.94-28 269.19-24.54L269.19-24.54Q271.51-20.95 271.51-15.04L271.51-15.04Q271.51-8.96 269.63-5.44L269.63-5.44Q267.5-1.49 263.35-1.49L263.35-1.49Q261.08-1.49 259.47-3.1L259.47-3.1Q258.81-3.78 258.4-4.74L258.4-4.74 258.4 1.2Q258.4 2.76 259.03 3.34L259.03 3.34Q259.67 3.93 261.65 4.15L261.65 4.15 261.65 5.96ZM262.96-25.51L262.96-25.51Q261.52-25.51 260.18-23.32L260.18-23.32Q258.3-20.31 258.3-14.92L258.3-14.92Q258.3-9.55 259.2-7.25L259.2-7.25Q260.5-3.98 263.06-3.98L263.06-3.98Q265.23-3.98 266.55-6.62L266.55-6.62Q268.07-9.59 268.07-15.11L268.07-15.11Q268.07-20.75 265.97-23.66L265.97-23.66Q264.6-25.51 262.96-25.51ZM295.75-13.77L282.25-13.77 282.25-12.82Q282.25-7.86 283.98-4.83L283.98-4.83Q285.69-1.81 288.31-1.81L288.31-1.81Q291.89-1.81 294.12-7.67L294.12-7.67 295.61-6.15Q292.9 1 287.72 1L287.72 1Q284.45 1 282.08-1.88L282.08-1.88Q278.86-5.83 278.86-13.16L278.86-13.16Q278.86-19.65 281.37-23.9L281.37-23.9Q283.84-28 287.48-28L287.48-28Q291.11-28 293.55-23.83L293.55-23.83Q295.75-20.02 295.75-14.77L295.75-14.77 295.75-13.77ZM282.4-16.16L292.16-16.16Q292.04-20.48 290.8-23.02L290.8-23.02Q289.53-25.66 287.5-25.66L287.5-25.66Q285.72-25.66 284.23-23.1L284.23-23.1Q282.57-20.31 282.4-16.16L282.4-16.16ZM314.75 0L305.64 0 305.64-1.81Q307.35-2.03 307.93-2.59L307.93-2.59Q308.5-3.15 308.5-4.81L308.5-4.81 308.5-22.66Q308.5-24.12 307.89-24.66L307.89-24.66Q307.37-25.1 305.69-25.2L305.69-25.2 305.69-27Q308.3-27 311.5-28L311.5-28 311.5-22.61Q312.6-25.17 314.16-26.49L314.16-26.49Q315.94-28 317.82-28L317.82-28Q318.82-28 319.68-27.49L319.68-27.49Q321.44-26.44 321.44-24.49L321.44-24.49Q321.44-23.68 321.09-23.02L321.09-23.02Q320.41-21.7 318.87-21.7L318.87-21.7Q318.02-21.7 317.36-22.19L317.36-22.19Q316.41-22.9 316.41-24.05L316.41-24.05Q316.41-24.83 317.04-25.61L317.04-25.61Q315.8-25.15 314.55-23.56L314.55-23.56Q312.77-21.24 311.69-18.46L311.69-18.46 311.69-4.81Q311.69-3.27 312.4-2.59L312.4-2.59Q312.96-2.03 314.75-1.81L314.75-1.81 314.75 0ZM364.87-22.19L371.8-22.19 371.8-20.48Q370.65-20.34 370.31-19.6L370.31-19.6Q369.85-18.65 369.56-15.65L369.56-15.65Q368.97-9.59 366.97-5L366.97-5Q368.51-2.17 369.46-2.17L369.46-2.17Q370.83-2.17 371.56-7.25L371.56-7.25 373.17-6.25Q372.22 1.32 369.14 1.32L369.14 1.32Q367.41 1.32 365.26-1.78L365.26-1.78Q362.99 1.32 360.21 1.32L360.21 1.32Q356.96 1.32 354.93-1.66L354.93-1.66Q352.81-4.79 352.81-10.18L352.81-10.18Q352.81-14.6 354.42-17.65L354.42-17.65Q355.42-19.51 357.45-21.75L357.45-21.75Q355.81-27.98 355.81-31.27L355.81-31.27Q355.81-34.03 356.74-36.13L356.74-36.13Q358.15-39.28 360.91-39.28L360.91-39.28Q362.99-39.28 364.31-37.48L364.31-37.48Q365.75-35.5 365.75-32.2L365.75-32.2Q365.75-28.15 363.48-25L363.48-25Q362.48-23.61 360.5-21.7L360.5-21.7Q363.13-13.04 365.65-7.59L365.65-7.59Q366.97-11.6 367.48-15.84L367.48-15.84Q367.55-16.5 367.55-17.04L367.55-17.04Q367.55-18.9 366.94-19.56L366.94-19.56Q366.21-20.34 364.87-20.48L364.87-20.48 364.87-22.19ZM358.15-19.24L358.15-19.24Q356.74-17.19 356.32-14.65L356.32-14.65Q356.05-12.99 356.05-10.45L356.05-10.45Q356.05-6.84 357.2-4.49L357.2-4.49Q358.59-1.64 360.94-1.64L360.94-1.64Q362.72-1.64 364.06-3.88L364.06-3.88Q363.96-4.1 363.79-4.44L363.79-4.44Q363.06-5.83 361.87-8.86L361.87-8.86Q359.74-14.16 358.15-19.24ZM359.81-24.29L359.81-24.29Q361.3-26.34 361.89-27.44L361.89-27.44Q362.74-29.08 362.74-32.13L362.74-32.13Q362.74-37.08 360.89-37.08L360.89-37.08Q360.06-37.08 359.45-35.96L359.45-35.96Q358.62-34.4 358.62-31.54L358.62-31.54Q358.62-28.66 359.81-24.29ZM400.24-36.18L400.24-37.99 406.05-37.99 406.05-36.18Q404.83-35.55 404.83-34.52L404.83-34.52Q404.83-33.74 405-32.45L405-32.45 408.11-7.1 408.3-7.1 411.25-35.08 414.65-35.08 417.9-7.1 418.04-7.1 420.75-32.08Q420.85-33.08 420.85-34.2L420.85-34.2Q420.85-35.94 418.99-36.18L418.99-36.18 418.99-37.99 424.68-37.99 424.68-36.23Q423.32-35.5 422.95-32.3L422.95-32.3 419.14 0.61 416.19 0.61 412.74-27.59 412.6-27.59 409.45 0.61 406.54 0.61 401.95-32.89Q401.56-35.62 400.24-36.18L400.24-36.18ZM437.52-28L437.52-28Q441.16-28 443.68-24.29L443.68-24.29Q446.48-20.14 446.48-13.4L446.48-13.4Q446.48-7.93 444.63-4.15L444.63-4.15Q442.11 1 437.45 1L437.45 1Q433.42 1 430.91-3.13L430.91-3.13Q428.49-7.08 428.49-13.4L428.49-13.4Q428.49-20.95 431.91-25.12L431.91-25.12Q434.28-28 437.52-28ZM437.48-25.61L437.48-25.61Q435.4-25.61 433.94-22.97L433.94-22.97Q432.08-19.65 432.08-13.55L432.08-13.55Q432.08-8.08 433.89-4.49L433.89-4.49Q435.45-1.39 437.5-1.39L437.5-1.39Q439.28-1.39 440.77-3.91L440.77-3.91Q442.9-7.54 442.9-13.5L442.9-13.5Q442.9-19.87 440.92-23.19L440.92-23.19Q439.48-25.61 437.48-25.61ZM464.75 0L455.64 0 455.64-1.81Q457.35-2.03 457.93-2.59L457.93-2.59Q458.5-3.15 458.5-4.81L458.5-4.81 458.5-22.66Q458.5-24.12 457.89-24.66L457.89-24.66Q457.37-25.1 455.69-25.2L455.69-25.2 455.69-27Q458.3-27 461.5-28L461.5-28 461.5-22.61Q462.6-25.17 464.16-26.49L464.16-26.49Q465.94-28 467.82-28L467.82-28Q468.82-28 469.68-27.49L469.68-27.49Q471.44-26.44 471.44-24.49L471.44-24.49Q471.44-23.68 471.09-23.02L471.09-23.02Q470.41-21.7 468.87-21.7L468.87-21.7Q468.02-21.7 467.36-22.19L467.36-22.19Q466.41-22.9 466.41-24.05L466.41-24.05Q466.41-24.83 467.04-25.61L467.04-25.61Q465.8-25.15 464.55-23.56L464.55-23.56Q462.77-21.24 461.69-18.46L461.69-18.46 461.69-4.81Q461.69-3.27 462.4-2.59L462.4-2.59Q462.96-2.03 464.75-1.81L464.75-1.81 464.75 0ZM497.41 0L491.85 0 491.6-2.54Q489.79 1 486.33 1L486.33 1Q482.57 1 480.37-3.15L480.37-3.15Q478.25-7.15 478.25-13.84L478.25-13.84Q478.25-20.31 480.91-24.46L480.91-24.46Q483.2-28 486.25-28L486.25-28Q488.21-28 489.84-26.46L489.84-26.46Q490.82-25.54 491.46-24.15L491.46-24.15 491.46-32.64Q491.46-34.86 490.99-35.4L490.99-35.4Q490.48-36.04 488.5-36.21L488.5-36.21 488.5-38.01Q491.65-38.01 494.65-39.01L494.65-39.01 494.65-5.25Q494.65-3.52 495.14-2.76L495.14-2.76Q495.68-1.95 497.41-1.81L497.41-1.81 497.41 0ZM486.91-25.2L486.91-25.2Q485.18-25.2 483.76-22.83L483.76-22.83Q481.74-19.48 481.74-13.84L481.74-13.84Q481.74-7.52 483.72-3.98L483.72-3.98Q485.01-1.66 486.65-1.66L486.65-1.66Q491.55-1.66 491.55-14.04L491.55-14.04Q491.55-20.65 489.77-23.27L489.77-23.27Q488.43-25.2 486.91-25.2ZM502.81-36.18L502.81-37.99 512.7-37.99Q516.82-37.99 519.26-35.28L519.26-35.28Q522.02-32.23 522.02-27.03L522.02-27.03Q522.02-21.8 519.26-19.21L519.26-19.21Q516.41-16.5 511.96-16.5L511.96-16.5 508.76-16.5 508.76-4.25Q508.76-2.98 509.35-2.49L509.35-2.49Q509.94-2.03 511.74-1.81L511.74-1.81 511.74 0 502.81 0 502.81-1.81Q504.44-2 505-2.49L505-2.49Q505.57-2.98 505.57-4.25L505.57-4.25 505.57-33.74Q505.57-35.01 505-35.5L505-35.5Q504.42-36.01 502.81-36.18L502.81-36.18ZM508.76-33.35L508.76-18.99 511.91-18.99Q518.36-18.99 518.36-27.17L518.36-27.17Q518.36-31.42 516.67-33.5L516.67-33.5Q515.04-35.5 512.3-35.5L512.3-35.5 510.86-35.5Q509.59-35.5 509.16-35.03L509.16-35.03Q508.76-34.64 508.76-33.35L508.76-33.35ZM539.75 0L530.64 0 530.64-1.81Q532.35-2.03 532.93-2.59L532.93-2.59Q533.5-3.15 533.5-4.81L533.5-4.81 533.5-22.66Q533.5-24.12 532.89-24.66L532.89-24.66Q532.37-25.1 530.69-25.2L530.69-25.2 530.69-27Q533.3-27 536.5-28L536.5-28 536.5-22.61Q537.6-25.17 539.16-26.49L539.16-26.49Q540.94-28 542.82-28L542.82-28Q543.82-28 544.68-27.49L544.68-27.49Q546.44-26.44 546.44-24.49L546.44-24.49Q546.44-23.68 546.09-23.02L546.09-23.02Q545.41-21.7 543.87-21.7L543.87-21.7Q543.02-21.7 542.36-22.19L542.36-22.19Q541.41-22.9 541.41-24.05L541.41-24.05Q541.41-24.83 542.04-25.61L542.04-25.61Q540.8-25.15 539.55-23.56L539.55-23.56Q537.77-21.24 536.69-18.46L536.69-18.46 536.69-4.81Q536.69-3.27 537.4-2.59L537.4-2.59Q537.96-2.03 539.75-1.81L539.75-1.81 539.75 0ZM570.75-13.77L557.25-13.77 557.25-12.82Q557.25-7.86 558.98-4.83L558.98-4.83Q560.69-1.81 563.31-1.81L563.31-1.81Q566.89-1.81 569.12-7.67L569.12-7.67 570.61-6.15Q567.9 1 562.72 1L562.72 1Q559.45 1 557.08-1.88L557.08-1.88Q553.86-5.83 553.86-13.16L553.86-13.16Q553.86-19.65 556.37-23.9L556.37-23.9Q558.84-28 562.48-28L562.48-28Q566.11-28 568.55-23.83L568.55-23.83Q570.75-20.02 570.75-14.77L570.75-14.77 570.75-13.77ZM557.4-16.16L567.16-16.16Q567.04-20.48 565.8-23.02L565.8-23.02Q564.53-25.66 562.5-25.66L562.5-25.66Q560.72-25.66 559.23-23.1L559.23-23.1Q557.57-20.31 557.4-16.16L557.4-16.16ZM580.1 0.71L580.1-8.74 581.76-8.74Q582.08-5.96 583.64-3.71L583.64-3.71Q585.28-1.34 587.77-1.34L587.77-1.34Q589.65-1.34 590.82-2.95L590.82-2.95Q591.8-4.27 591.8-6.08L591.8-6.08Q591.8-9.01 587.74-11.84L587.74-11.84 586.4-12.79Q583.35-14.94 582.06-16.5L582.06-16.5Q580.35-18.48 580.35-21.29L580.35-21.29Q580.35-23.68 581.71-25.49L581.71-25.49Q583.59-28 586.79-28L586.79-28Q589.04-28 591.14-26L591.14-26Q591.5-25.66 591.77-25.66L591.77-25.66Q592.24-25.66 592.41-27L592.41-27 593.9-27 593.9-19.56 592.29-19.56Q590.41-25.66 587.23-25.66L587.23-25.66Q585.64-25.66 584.55-24.34L584.55-24.34Q583.74-23.36 583.74-21.66L583.74-21.66Q583.74-19.8 584.81-18.58L584.81-18.58Q585.67-17.58 587.84-16.16L587.84-16.16 589.31-15.21Q592.31-13.23 593.43-11.79L593.43-11.79Q595.24-9.45 595.24-6.27L595.24-6.27Q595.24-2.88 593.09-0.81L593.09-0.81Q591.21 1 588.21 1L588.21 1Q585.08 1 583.57-0.9L583.57-0.9Q582.89-1.76 582.5-1.76L582.5-1.76Q581.93-1.76 581.49 0.71L581.49 0.71 580.1 0.71ZM605.1 0.71L605.1-8.74 606.76-8.74Q607.08-5.96 608.64-3.71L608.64-3.71Q610.28-1.34 612.77-1.34L612.77-1.34Q614.65-1.34 615.82-2.95L615.82-2.95Q616.8-4.27 616.8-6.08L616.8-6.08Q616.8-9.01 612.74-11.84L612.74-11.84 611.4-12.79Q608.35-14.94 607.06-16.5L607.06-16.5Q605.35-18.48 605.35-21.29L605.35-21.29Q605.35-23.68 606.71-25.49L606.71-25.49Q608.59-28 611.79-28L611.79-28Q614.04-28 616.14-26L616.14-26Q616.5-25.66 616.77-25.66L616.77-25.66Q617.24-25.66 617.41-27L617.41-27 618.9-27 618.9-19.56 617.29-19.56Q615.41-25.66 612.23-25.66L612.23-25.66Q610.64-25.66 609.55-24.34L609.55-24.34Q608.74-23.36 608.74-21.66L608.74-21.66Q608.74-19.8 609.81-18.58L609.81-18.58Q610.67-17.58 612.84-16.16L612.84-16.16 614.31-15.21Q617.31-13.23 618.43-11.79L618.43-11.79Q620.24-9.45 620.24-6.27L620.24-6.27Q620.24-2.88 618.09-0.81L618.09-0.81Q616.21 1 613.21 1L613.21 1Q610.08 1 608.57-0.9L608.57-0.9Q607.89-1.76 607.5-1.76L607.5-1.76Q606.93-1.76 606.49 0.71L606.49 0.71 605.1 0.71ZM652.49-36.18L652.49-37.99 670.43-37.99 670.78-28.3 669.24-28.3Q668.82-32.06 667.63-33.86L667.63-33.86Q666.55-35.5 664.18-35.5L664.18-35.5 660.42-35.5Q659.18-35.5 658.72-35.03L658.72-35.03Q658.33-34.62 658.33-33.35L658.33-33.35 658.33-21.39 661.57-21.39Q663.53-21.39 664.26-23.05L664.26-23.05Q664.79-24.22 664.87-26.29L664.87-26.29 666.48-26.29 666.48-13.31 664.87-13.31Q664.75-16.36 663.96-17.68L663.96-17.68Q663.21-18.9 661.57-18.9L661.57-18.9 658.33-18.9 658.33-4.64Q658.33-3.39 658.84-2.95L658.84-2.95Q659.35-2.49 660.77-2.49L660.77-2.49 663.92-2.49Q667.07-2.49 668.33-4.57L668.33-4.57Q669.34-6.2 669.87-10.35L669.87-10.35 671.39-10.35 670.92 0 652.49 0 652.49-1.81Q654-2.12 654.52-2.59L654.52-2.59Q655.08-3.1 655.08-4.25L655.08-4.25 655.08-33.74Q655.08-35.01 654.52-35.5L654.52-35.5Q654.03-35.91 652.49-36.18L652.49-36.18ZM677.44-25.2L677.44-27 685.6-27 685.6-25.2Q683.64-25.02 683.64-24.29L683.64-24.29Q683.64-23.88 684.01-23.24L684.01-23.24 687.79-16.6 691.6-23.36Q691.82-23.75 691.82-24.07L691.82-24.07Q691.82-24.95 689.94-25.2L689.94-25.2 689.94-27 696.9-27 696.9-25.2Q695.36-24.9 694.24-23.05L694.24-23.05 688.99-14.26 694.75-4.1Q695.63-2.54 697.53-1.81L697.53-1.81 697.71-1.76 697.71 0 689.45 0 689.45-1.76Q690.23-1.73 690.87-2.2L690.87-2.2Q691.24-2.47 691.24-2.83L691.24-2.83Q691.24-3.17 690.99-3.66L690.99-3.66 686.94-11.65 683.01-4.44Q682.45-3.44 682.45-2.95L682.45-2.95Q682.45-1.98 684.16-1.76L684.16-1.76 684.16 0 677.2 0 677.2-1.76Q678.81-2.22 680.05-4.35L680.05-4.35 685.6-13.94 680.74-22.95Q680.13-24.12 679.47-24.56L679.47-24.56Q678.81-25 677.44-25.2L677.44-25.2ZM711.65 5.96L702.29 5.96 702.29 4.15Q704.08 4.03 704.71 3.34L704.71 3.34Q705.25 2.76 705.25 1.2L705.25 1.2 705.25-22.66Q705.25-24.07 704.64-24.61L704.64-24.61Q704.15-25.02 702.39-25.2L702.39-25.2 702.39-27Q706.08-27.1 708.4-28L708.4-28 708.4-24.1Q709.06-25.83 710.67-26.98L710.67-26.98Q712.11-28 713.65-28L713.65-28Q716.94-28 719.19-24.54L719.19-24.54Q721.51-20.95 721.51-15.04L721.51-15.04Q721.51-8.96 719.63-5.44L719.63-5.44Q717.5-1.49 713.35-1.49L713.35-1.49Q711.08-1.49 709.47-3.1L709.47-3.1Q708.81-3.78 708.4-4.74L708.4-4.74 708.4 1.2Q708.4 2.76 709.03 3.34L709.03 3.34Q709.67 3.93 711.65 4.15L711.65 4.15 711.65 5.96ZM712.96-25.51L712.96-25.51Q711.52-25.51 710.18-23.32L710.18-23.32Q708.3-20.31 708.3-14.92L708.3-14.92Q708.3-9.55 709.2-7.25L709.2-7.25Q710.5-3.98 713.06-3.98L713.06-3.98Q715.23-3.98 716.55-6.62L716.55-6.62Q718.07-9.59 718.07-15.11L718.07-15.11Q718.07-20.75 715.97-23.66L715.97-23.66Q714.6-25.51 712.96-25.51ZM745.75-13.77L732.25-13.77 732.25-12.82Q732.25-7.86 733.98-4.83L733.98-4.83Q735.69-1.81 738.31-1.81L738.31-1.81Q741.89-1.81 744.12-7.67L744.12-7.67 745.61-6.15Q742.9 1 737.72 1L737.72 1Q734.45 1 732.08-1.88L732.08-1.88Q728.86-5.83 728.86-13.16L728.86-13.16Q728.86-19.65 731.37-23.9L731.37-23.9Q733.84-28 737.48-28L737.48-28Q741.11-28 743.55-23.83L743.55-23.83Q745.75-20.02 745.75-14.77L745.75-14.77 745.75-13.77ZM732.4-16.16L742.16-16.16Q742.04-20.48 740.8-23.02L740.8-23.02Q739.53-25.66 737.5-25.66L737.5-25.66Q735.72-25.66 734.23-23.1L734.23-23.1Q732.57-20.31 732.4-16.16L732.4-16.16ZM764.75 0L755.64 0 755.64-1.81Q757.35-2.03 757.93-2.59L757.93-2.59Q758.5-3.15 758.5-4.81L758.5-4.81 758.5-22.66Q758.5-24.12 757.89-24.66L757.89-24.66Q757.37-25.1 755.69-25.2L755.69-25.2 755.69-27Q758.3-27 761.5-28L761.5-28 761.5-22.61Q762.6-25.17 764.16-26.49L764.16-26.49Q765.94-28 767.82-28L767.82-28Q768.82-28 769.68-27.49L769.68-27.49Q771.44-26.44 771.44-24.49L771.44-24.49Q771.44-23.68 771.09-23.02L771.09-23.02Q770.41-21.7 768.87-21.7L768.87-21.7Q768.02-21.7 767.36-22.19L767.36-22.19Q766.41-22.9 766.41-24.05L766.41-24.05Q766.41-24.83 767.04-25.61L767.04-25.61Q765.8-25.15 764.55-23.56L764.55-23.56Q762.77-21.24 761.69-18.46L761.69-18.46 761.69-4.81Q761.69-3.27 762.4-2.59L762.4-2.59Q762.96-2.03 764.75-1.81L764.75-1.81 764.75 0ZM784.35-24.61L779.49-24.61 779.49-26.66Q782.28-27.15 783.3-27.95L783.3-27.95Q784.5-28.91 785.08-31.42L785.08-31.42Q785.38-32.71 785.69-35.45L785.69-35.45 787.5-35.45 787.5-27 794.24-27 794.24-24.61 787.5-24.61 787.5-6.49Q787.5-4.17 787.87-3.22L787.87-3.22Q788.26-2.2 789.58-2.2L789.58-2.2Q791.31-2.2 792.7-4.66L792.7-4.66 793.9-2.91Q791.72 0.85 788.72 0.85L788.72 0.85Q786.5 0.85 785.28-1.07L785.28-1.07Q784.35-2.56 784.35-6.45L784.35-6.45 784.35-24.61Z" opacity="1" transform="matrix(1,0,0,1,0,0)" fill="#444444" class="slogan-text-1" data-fill-palette-color="quaternary" id="text-1"></path></svg></g></svg></g></svg></g></svg></g><g transform="matrix(1,0,0,1,77.69758210378079,0)"><svg viewBox="0 0 57.76327701959551 57.76327701959551" height="57.76327701959551" width="57.76327701959551"><g><svg xmlns="http://www.w3.org/2000/svg" xmlns:xlink="http://www.w3.org/1999/xlink" version="1.0" x="0" y="0" viewBox="10 10 80 80" enable-background="new 0 0 100 100" xml:space="preserve" height="57.76327701959551" width="57.76327701959551" class="icon-icon-0" data-fill-palette-color="quaternary" id="icon-0"><path fill="none" stroke="#444444" stroke-linecap="round" stroke-linejoin="round" stroke-miterlimit="10" d="M78.33 56.667L80.275 72.222z"></path><path fill="none" stroke="#444444" stroke-linecap="round" stroke-linejoin="round" stroke-miterlimit="10" d="M75.689 22.862V19.705C75.021 14.236 70.37 10 64.722 10 59.075 10 54.424 14.235 53.754 19.704V22.861A3.675 3.675 0 0 0 51.293 26.322C51.293 29.467 52.889 32.011 54.875 32.1 56.703 37.731 60.424 41.596 64.722 41.596S72.738 37.732 74.568 32.1C76.554 32.011 78.151 29.467 78.151 26.322 78.15 24.721 77.118 23.371 75.689 22.862"></path><path fill="none" stroke="#444444" stroke-linecap="round" stroke-linejoin="round" stroke-miterlimit="10" d="M63.359 24.58H56.553V26.525C56.553 27.596 57.43 28.472 58.499 28.472H61.416A1.95 1.95 0 0 0 63.358 26.525z"></path><path fill="none" stroke="#444444" stroke-linecap="round" stroke-linejoin="round" stroke-miterlimit="10" d="M56.554 24.58L53.754 22.862z"></path><path fill="none" stroke="#444444" stroke-linecap="round" stroke-linejoin="round" stroke-miterlimit="10" d="M66.081 24.58H72.887V26.525A1.95 1.95 0 0 1 70.943 28.472H68.027A1.95 1.95 0 0 1 66.082 26.525z"></path><path fill="none" stroke="#444444" stroke-linecap="round" stroke-linejoin="round" stroke-miterlimit="10" d="M72.889 24.58L75.69 22.862z"></path><path fill="none" stroke="#444444" stroke-linecap="round" stroke-linejoin="round" stroke-miterlimit="10" d="M63.359 24.58H66.081z"></path><path fill="none" stroke="#444444" stroke-linecap="round" stroke-linejoin="round" stroke-miterlimit="10" d="M62.292 35.745"></path><path fill="none" stroke="#444444" stroke-linecap="round" stroke-linejoin="round" stroke-miterlimit="10" d="M75.689 22.862A10.97 10.97 0 0 1 67.909 19.641H67.909A10.96 10.96 0 0 0 60.132 16.419C56.61 16.419 53.754 19.304 53.754 22.862V19.705C54.424 14.236 59.074 10 64.722 10S75.021 14.235 75.69 19.704V22.862z"></path><path fill="none" stroke="#444444" stroke-linecap="round" stroke-linejoin="round" stroke-miterlimit="10" d="M64.722 48.889A9.7 9.7 0 0 0 72.556 44.908 5.2 5.2 0 0 1 71.11 43.906 5.16 5.16 0 0 1 69.59 40.238V39.809C68.121 40.948 66.471 41.597 64.722 41.597 62.974 41.597 61.324 40.948 59.856 39.809V40.238A5.17 5.17 0 0 1 58.335 43.906 5.2 5.2 0 0 1 56.886 44.905C58.656 47.317 61.503 48.889 64.722 48.889"></path><path fill="none" stroke="#444444" stroke-linecap="round" stroke-linejoin="round" stroke-miterlimit="10" d="M72.792 45.033C72.708 44.999 72.637 44.944 72.556 44.908A9.697 9.697 0 0 1 56.886 44.905C56.808 44.945 56.735 44.997 56.65 45.033L53.235 46.448C55.65 50.248 59.886 52.778 64.721 52.778 69.558 52.778 73.793 50.249 76.21 46.448z"></path><path fill="none" stroke="#444444" stroke-linecap="round" stroke-linejoin="round" stroke-miterlimit="10" d="M58.889 85.556H10V87.78A2.23 2.23 0 0 0 12.223 90H56.667A2.227 2.227 0 0 0 58.889 87.779z"></path><path fill="none" stroke="#444444" stroke-linecap="round" stroke-linejoin="round" stroke-miterlimit="10" d="M58.889 82.219C58.889 84.052 57.389 85.552 55.556 85.552H13.335A3.344 3.344 0 0 1 10 82.219V57.774C10 55.941 11.5 54.439 13.335 54.439H55.556A3.345 3.345 0 0 1 58.889 57.774z"></path><path fill="none" stroke="#444444" stroke-linecap="round" stroke-linejoin="round" stroke-miterlimit="10" d="M55.556 54.439A3.345 3.345 0 0 1 58.889 57.774V72.221H90L89.996 57.395C89.996 54.926 88.996 52.691 87.382 51.074L76.21 46.448C73.793 50.248 69.558 52.778 64.721 52.778 59.886 52.778 55.65 50.249 53.235 46.448L42.063 51.074A8.9 8.9 0 0 0 39.956 54.439z"></path><circle fill="none" stroke="#444444" stroke-linecap="round" stroke-linejoin="round" stroke-miterlimit="10" cx="34.444" cy="70" r="3.3"></circle></svg></g></svg></g><g></g></svg></g></svg></g></svg></g></svg></g><defs></defs></svg><rect width="342.8515585177538" height="342.8515585177538" fill="none" stroke="none" visibility="hidden"></rect></g></svg></g></svg>